<?xml version="1.0" encoding="utf-8"?>
<!-- Generator: Adobe Illustrator 24.3.0, SVG Export Plug-In . SVG Version: 6.00 Build 0)  -->
<svg version="1.1" xmlns="http://www.w3.org/2000/svg" xmlns:xlink="http://www.w3.org/1999/xlink" x="0px" y="0px"
	 viewBox="0 0 512 256" style="enable-background:new 0 0 512 256;" xml:space="preserve">
<g id="Layer_1">
	<path d="M439.85,63.65L274.38,229.12c-10.15,10.15-26.62,10.15-36.77,0l0,0c-10.15-10.15-10.15-26.62,0-36.77L403.08,26.88
		c10.15-10.15,26.62-10.15,36.77,0l0,0C450,37.04,450,53.5,439.85,63.65z"/>
	<path d="M108.92,26.88l165.46,165.46c10.15,10.15,10.15,26.62,0,36.77l0,0c-10.15,10.15-26.62,10.15-36.77,0L72.15,63.65
		C62,53.5,62,37.04,72.15,26.88l0,0C82.31,16.73,98.77,16.73,108.92,26.88z"/>
</g>
<g id="Layer_2">
	<circle cx="256" cy="210.73" r="26"/>
</g>
</svg>
